Coordinates
version=1
nRows=25
nColumns=34
inDegrees=no

Units are S.I. units (second, meters, Newtons, ...)
If the header above contains a line with 'inDegrees', this indicates whether rotational values are in degrees (yes) or radians (no).

endheader
time	pelvis_tilt	pelvis_list	pelvis_rotation	pelvis_tx	pelvis_ty	pelvis_tz	hip_flexion_r	hip_adduction_r	hip_rotation_r	knee_angle_r	ankle_angle_r	subtalar_angle_r	mtp_angle_r	hip_flexion_l	hip_adduction_l	hip_rotation_l	knee_angle_l	ankle_angle_l	subtalar_angle_l	mtp_angle_l	lumbar_extension	lumbar_bending	lumbar_rotation	arm_flex_r	arm_add_r	arm_rot_r	elbow_flex_r	pro_sup_r	arm_flex_l	arm_add_l	arm_rot_l	elbow_flex_l	pro_sup_l
6.75	-0.290917	-0.000944604	-0.150361	-0.311216	1.09502	-0.536377	0.68296	-0.0462981	0.0125229	0.463297	0.0724879	0.00879476	-0.00517381	0.515519	-0.415774	-0.44452	0.385119	0.0903197	0.334476	-0.00551439	-0.441453	0.0572521	0.179043	0.721853	-0.415386	0.352174	1.95155	1.90637	0.59613	-0.176163	0.306485	1.88796	2.12463
6.76	-0.275277	-0.00438673	-0.144605	-0.305962	1.09983	-0.539776	0.648691	-0.0526881	0.00569008	0.44119	0.0685863	0.0175467	-0.00517396	0.484394	-0.404356	-0.443541	0.362426	0.0846029	0.336872	-0.00551242	-0.435494	0.0637373	0.17332	0.680181	-0.417326	0.341977	1.95899	1.90984	0.563172	-0.175112	0.308737	1.89005	2.12849
6.77	-0.259586	-0.00781969	-0.138695	-0.300706	1.10448	-0.543232	0.614169	-0.0588454	-0.00162389	0.418812	0.0647226	0.0267488	-0.00517411	0.453387	-0.392981	-0.441278	0.339782	0.0788551	0.33806	-0.00551045	-0.42952	0.070044	0.167531	0.638862	-0.419207	0.331547	1.96636	1.91248	0.5312	-0.174373	0.311646	1.89212	2.13078
6.78	-0.243946	-0.0112488	-0.132655	-0.295454	1.10895	-0.546739	0.579548	-0.0647432	-0.00952961	0.39625	0.0609516	0.0365853	-0.00517427	0.42262	-0.381784	-0.437913	0.317315	0.0731552	0.338181	-0.00550849	-0.423418	0.0761951	0.161656	0.597954	-0.420982	0.321019	1.97361	1.91422	0.500174	-0.173996	0.315218	1.89425	2.1309
6.79	-0.22848	-0.0146741	-0.126499	-0.290215	1.1132	-0.55029	0.545018	-0.0703579	-0.0181203	0.373605	0.0573214	0.0471895	-0.00517442	0.392261	-0.370892	-0.433663	0.295158	0.0675803	0.337472	-0.00550653	-0.417053	0.0822147	0.155685	0.557485	-0.422609	0.310502	1.98072	1.91503	0.470049	-0.174022	0.319432	1.8965	2.1287
6.8	-0.213315	-0.0180876	-0.120229	-0.284997	1.11722	-0.553876	0.510784	-0.0756712	-0.0274589	0.350989	0.0538732	0.0586276	-0.00517458	0.36249	-0.36041	-0.428766	0.273448	0.0622033	0.336234	-0.00550458	-0.410303	0.0881173	0.149635	0.517449	-0.42405	0.300048	1.98771	1.91489	0.440805	-0.174483	0.324263	1.8989	2.12441
6.81	-0.198553	-0.0214747	-0.113835	-0.279811	1.12099	-0.557488	0.47703	-0.0806698	-0.0375702	0.328521	0.0506402	0.0708946	-0.00517474	0.33348	-0.350425	-0.423466	0.252323	0.0570958	0.334814	-0.00550262	-0.403089	0.0939036	0.143547	0.477814	-0.425274	0.289642	1.99464	1.91378	0.412456	-0.175403	0.329673	1.90143	2.11867
6.82	-0.18426	-0.0248155	-0.10731	-0.274673	1.12449	-0.561119	0.44391	-0.0853428	-0.0484328	0.306323	0.0476465	0.0839214	-0.00517491	0.305371	-0.341004	-0.418005	0.231919	0.0523332	0.333573	-0.00550067	-0.395394	0.0995569	0.137487	0.438539	-0.426247	0.279205	2.00161	1.91176	0.385055	-0.176789	0.335601	1.90408	2.11239
6.83	-0.170458	-0.0280858	-0.100655	-0.269598	1.12773	-0.564756	0.411534	-0.0896836	-0.0599749	0.284518	0.0449093	0.0975925	-0.00517508	0.278262	-0.332196	-0.41262	0.212379	0.0479978	0.332847	-0.00549872	-0.387271	0.105038	0.13154	0.39959	-0.426925	0.268613	2.00872	1.90892	0.35868	-0.178631	0.341968	1.9068	2.10648
6.84	-0.157126	-0.0312564	-0.0938927	-0.264605	1.1307	-0.568388	0.37997	-0.0936911	-0.0720734	0.263227	0.0424344	0.111756	-0.00517525	0.252206	-0.324034	-0.407535	0.193849	0.044181	0.332926	-0.00549677	-0.378836	0.110283	0.125807	0.360955	-0.427255	0.257714	2.01606	1.90548	0.333422	-0.180907	0.34869	1.90958	2.10168
6.85	-0.144206	-0.0342921	-0.08707	-0.259713	1.13341	-0.571998	0.349252	-0.0973723	-0.084559	0.242563	0.0402118	0.126231	-0.00517542	0.227217	-0.316529	-0.402954	0.176484	0.0409811	0.334033	-0.00549482	-0.370252	0.115205	0.120395	0.322658	-0.427177	0.246363	2.02368	1.90177	0.309374	-0.18359	0.355678	1.91241	2.0985
6.86	-0.131613	-0.0371488	-0.0802521	-0.254942	1.13587	-0.575571	0.319384	-0.100749	-0.0972414	0.222632	0.0382214	0.140838	-0.00517559	0.20327	-0.30967	-0.399031	0.160424	0.0384895	0.336289	-0.00549288	-0.361712	0.119695	0.115393	0.284761	-0.42663	0.234454	2.03159	1.89826	0.286607	-0.186653	0.362859	1.91534	2.09701
6.87	-0.119251	-0.0397728	-0.0735178	-0.25031	1.1381	-0.579087	0.290353	-0.103864	-0.10994	0.203528	0.0364455	0.15544	-0.00517577	0.180311	-0.303416	-0.395845	0.145781	0.0367763	0.339685	-0.00549094	-0.353431	0.123637	0.110867	0.247374	-0.425547	0.22195	2.03977	1.89538	0.265164	-0.190081	0.370157	1.91842	2.09701
6.88	-0.107017	-0.0421065	-0.0669461	-0.245837	1.14011	-0.58253	0.262133	-0.106772	-0.122513	0.18534	0.0348788	0.169963	-0.00517595	0.158261	-0.297705	-0.393384	0.13263	0.0358818	0.344089	-0.00548901	-0.345627	0.126916	0.106847	0.210634	-0.423863	0.208883	2.04815	1.8935	0.245057	-0.193869	0.377493	1.92173	2.09814
6.89	-0.0948112	-0.0440989	-0.060598	-0.241538	1.14193	-0.585883	0.234682	-0.10954	-0.134884	0.168141	0.0335317	0.184401	-0.00517614	0.137025	-0.292461	-0.391542	0.121006	0.0358137	0.349262	-0.00548708	-0.338517	0.129442	0.103334	0.174692	-0.421518	0.195324	2.05669	1.89297	0.226265	-0.19801	0.384785	1.92536	2.09998
6.9	-0.0825356	-0.0457167	-0.054501	-0.237425	1.14357	-0.589137	0.207937	-0.112234	-0.147037	0.151984	0.0324229	0.198785	-0.00517632	0.116505	-0.287606	-0.39012	0.110912	0.0365486	0.354891	-0.00548515	-0.332304	0.131176	0.100303	0.139689	-0.418468	0.181343	2.06531	1.89409	0.208757	-0.202485	0.391963	1.92936	2.10214
6.91	-0.0701012	-0.0469515	-0.0486446	-0.233509	1.14505	-0.592288	0.181814	-0.114904	-0.158996	0.136896	0.0315618	0.213126	-0.00517651	0.0966046	-0.283074	-0.388854	0.102317	0.0380353	0.360618	-0.00548324	-0.327171	0.132135	0.097725	0.105736	-0.414692	0.16698	2.07395	1.89711	0.192503	-0.207255	0.398982	1.9337	2.10427
6.92	-0.0574331	-0.0478205	-0.0429843	-0.229799	1.1464	-0.595341	0.156221	-0.117577	-0.170794	0.122874	0.0309382	0.227386	-0.0051767	0.0772406	-0.278813	-0.387444	0.0951668	0.0401976	0.366076	-0.00548133	-0.323267	0.132397	0.0955716	0.0729108	-0.410194	0.152232	2.08256	1.90221	0.177483	-0.212248	0.405834	1.93833	2.10613
6.93	-0.044481	-0.0483567	-0.0374579	-0.2263	1.14764	-0.598303	0.131076	-0.120266	-0.18245	0.109898	0.0305222	0.24146	-0.0051769	0.0583519	-0.274784	-0.385609	0.0893846	0.0429393	0.37093	-0.00547942	-0.320702	0.13208	0.0938298	0.0412612	-0.405002	0.137065	2.0911	1.90944	0.163692	-0.217369	0.412541	1.94313	2.10751
6.94	-0.0312362	-0.0485956	-0.0320136	-0.22302	1.14879	-0.601186	0.106342	-0.122968	-0.19393	0.097934	0.0302681	0.255177	-0.00517709	0.0399143	-0.270952	-0.38314	0.0848805	0.0461542	0.374916	-0.00547752	-0.319523	0.131308	0.0925106	0.0108151	-0.39916	0.121442	2.09949	1.91864	0.151133	-0.222497	0.419128	1.94793	2.10836
6.95	-0.0177542	-0.0485646	-0.0266403	-0.219963	1.14985	-0.603994	0.0820511	-0.125678	-0.20512	0.0869418	0.0301193	0.268305	-0.00517729	0.0219567	-0.267289	-0.37996	0.0815591	0.0497382	0.37787	-0.00547563	-0.319689	0.13018	0.0916541	-0.0184059	-0.39272	0.105362	2.10769	1.92948	0.139808	-0.227516	0.425615	1.95254	2.10873
6.96	-0.00416444	-0.0482836	-0.0213793	-0.21713	1.15084	-0.606725	0.0583278	-0.128378	-0.215827	0.0768731	0.030013	0.28057	-0.00517749	0.00456833	-0.263771	-0.376133	0.0793214	0.0536	0.379748	-0.00547374	-0.321057	0.128763	0.0913188	-0.0463732	-0.385741	0.0888942	2.11561	1.94138	0.129702	-0.232337	0.432005	1.95677	2.10881
6.97	0.00933723	-0.0477712	-0.0163107	-0.214519	1.15176	-0.609372	0.0353703	-0.131046	-0.225824	0.0676757	0.0298903	0.291703	-0.0051777	-0.0121077	-0.260385	-0.371837	0.0780633	0.0576645	0.380613	-0.00547186	-0.323386	0.127097	0.0915533	-0.0730378	-0.378292	0.0721996	2.12316	1.95364	0.120776	-0.236917	0.438283	1.96045	2.10887
6.98	0.0225137	-0.0470498	-0.0115233	-0.212125	1.1526	-0.611921	0.0134248	-0.133654	-0.234928	0.059302	0.0297131	0.301515	-0.0051779	-0.0278922	-0.257125	-0.367303	0.0776748	0.0618719	0.38061	-0.00546999	-0.326369	0.125213	0.0923631	-0.0983208	-0.37046	0.0555297	2.13024	1.96552	0.11296	-0.241253	0.444427	1.96344	2.10911
6.99	0.0351115	-0.0461485	-0.00708973	-0.209938	1.15336	-0.61436	-0.00724372	-0.136178	-0.243026	0.0517172	0.0294678	0.309899	-0.00517811	-0.0425834	-0.253998	-0.362779	0.0780504	0.0661779	0.379956	-0.00546812	-0.329661	0.123136	0.0936901	-0.122112	-0.362353	0.0392121	2.13671	1.97627	0.106151	-0.245362	0.450393	1.96564	2.10963
